<svg width="70" height="72" viewBox="0 0 70 72" fill="none" xmlns="http://www.w3.org/2000/svg">
<rect x="5" width="60" height="60" rx="30" fill="white"/>
<path d="M39.2207 67.8226C36.8827 70.1366 33.1173 70.1366 30.7793 67.8226L15.0599 52.2645C11.2501 48.4937 13.9203 42 19.2807 42H50.7194C56.0797 42 58.7499 48.4937 54.9401 52.2645L39.2207 67.8226Z" fill="white"/>
<rect x="8" y="3" width="54" height="54" rx="27" fill="#4B83BC"/>
<path d="M53.75 30.75H52.5V25.75C52.5 25.087 52.2366 24.4511 51.7678 23.9822C51.2989 23.5134 50.663 23.25 50 23.25H47.5V22C47.5 21.337 47.2366 20.7011 46.7678 20.2322C46.2989 19.7634 45.663 19.5 45 19.5H41.25C40.587 19.5 39.9511 19.7634 39.4822 20.2322C39.0134 20.7011 38.75 21.337 38.75 22V30.75H31.25V22C31.25 21.337 30.9866 20.7011 30.5178 20.2322C30.0489 19.7634 29.413 19.5 28.75 19.5H25C24.337 19.5 23.7011 19.7634 23.2322 20.2322C22.7634 20.7011 22.5 21.337 22.5 22V23.25H20C19.337 23.25 18.7011 23.5134 18.2322 23.9822C17.7634 24.4511 17.5 25.087 17.5 25.75V30.75H16.25C15.9185 30.75 15.6005 30.8817 15.3661 31.1161C15.1317 31.3505 15 31.6685 15 32C15 32.3315 15.1317 32.6495 15.3661 32.8839C15.6005 33.1183 15.9185 33.25 16.25 33.25H17.5V38.25C17.5 38.913 17.7634 39.5489 18.2322 40.0178C18.7011 40.4866 19.337 40.75 20 40.75H22.5V42C22.5 42.663 22.7634 43.2989 23.2322 43.7678C23.7011 44.2366 24.337 44.5 25 44.5H28.75C29.413 44.5 30.0489 44.2366 30.5178 43.7678C30.9866 43.2989 31.25 42.663 31.25 42V33.25H38.75V42C38.75 42.663 39.0134 43.2989 39.4822 43.7678C39.9511 44.2366 40.587 44.5 41.25 44.5H45C45.663 44.5 46.2989 44.2366 46.7678 43.7678C47.2366 43.2989 47.5 42.663 47.5 42V40.75H50C50.663 40.75 51.2989 40.4866 51.7678 40.0178C52.2366 39.5489 52.5 38.913 52.5 38.25V33.25H53.75C54.0815 33.25 54.3995 33.1183 54.6339 32.8839C54.8683 32.6495 55 32.3315 55 32C55 31.6685 54.8683 31.3505 54.6339 31.1161C54.3995 30.8817 54.0815 30.75 53.75 30.75ZM20 38.25V25.75H22.5V38.25H20ZM28.75 42H25V22H28.75V42ZM45 42H41.25V22H45V39.4719C45 39.4813 45 39.4906 45 39.5C45 39.5094 45 39.5187 45 39.5281V42ZM50 38.25H47.5V25.75H50V38.25Z" fill="white"/>
</svg>
